<?xml version="1.0" encoding="UTF-8" standalone="no"?>
<!-- Created with Inkscape (http://www.inkscape.org/) -->

<svg
   xmlns:dc="http://purl.org/dc/elements/1.1/"
   xmlns:cc="http://creativecommons.org/ns#"
   xmlns:rdf="http://www.w3.org/1999/02/22-rdf-syntax-ns#"
   xmlns:svg="http://www.w3.org/2000/svg"
   xmlns="http://www.w3.org/2000/svg"
   version="1.0"
   width="100.75"
   height="674.28125"
   id="svg2">
  <metadata
     id="metadata355">
    <rdf:RDF>
      <cc:Work
         rdf:about="">
        <dc:format>image/svg+xml</dc:format>
        <dc:type
           rdf:resource="http://purl.org/dc/dcmitype/StillImage" />
        <dc:title></dc:title>
      </cc:Work>
    </rdf:RDF>
  </metadata>
  <defs
     id="defs353" />
  <g
     transform="matrix(0,1,-1,0,100.75,0)"
     id="g3072">
    <path
       d="m 36.15877,55.8027 c 0.87295,0 1.57571,0.892 1.57571,2 l 0,14.41615 c 0,1.108 -0.70276,2 -1.57571,2 -0.87294,0 -1.57571,-0.892 -1.57571,-2 l 0,-14.41615 c 0,-1.108 0.70277,-2 1.57571,-2 z"
       id="path3"
       style="fill:#969696;fill-opacity:1;stroke:#000000" />
    <path
       d="m 652.03217,81.4362 3.7028,-0.65588 0.4494,2.5371 -3.7028,0.65588 -0.4494,-2.5371 z"
       id="path5"
       style="fill:#969696;fill-opacity:1;stroke:#000000" />
    <path
       d="m 657.3438,84.01243 c -1.04966,0.22504 -5.59904,1.10135 -6.67885,1.24307 -5.24649,0.68862 -10.78253,0.47512 -15.97069,0.14968 -1.56946,-0.0984 -2.49405,-0.21308 -5.30987,-0.0696 -2.81576,0.14344 -7.55846,0.7784 -16.9218,2.28062 l 0.17403,0.83565 c 9.35573,-0.91059 14.08034,-1.30466 16.83487,-1.44498 2.75452,-0.14031 3.50849,-0.0487 5.11835,0.0522 6.28766,0.3944 13.18649,0.66553 19.62031,-0.71379 2.62422,-0.51434 3.84996,-1.26176 3.13365,-2.33285 z"
       id="path7"
       style="fill:#969696;fill-opacity:1;stroke:#000000" />
    <path
       d="m 28.32081,47.36578 c -2.82027,-0.0362 -6.60419,0.10848 -10.48042,0.83565 -3.87623,0.72717 -7.96459,2.00073 -11.3857,4.68311 -3.42111,2.68238 -5.95399,7.0917 -5.95399,12.41285 0,5.25102 2.56131,9.60655 5.9714,12.25618 3.41008,2.64962 7.46809,3.94805 11.33347,4.70051 7.399,1.44036 14.13316,0.80599 14.7283,0.7486 l 207.60629,0 0,-8.35648 -207.60629,0 -0.20891,0 -0.19151,0.0174 c 0,0 -6.52951,0.59697 -12.72622,-0.60933 -3.09835,-0.60315 -6.00407,-1.69039 -7.81679,-3.09886 -1.81272,-1.40847 -2.73326,-2.7987 -2.73326,-5.65804 0,-2.98616 0.94898,-4.41947 2.75067,-5.83212 1.8017,-1.41265 4.67706,-2.48483 7.76456,-3.06404 6.17501,-1.15843 12.69141,-0.48746 12.69141,-0.48746 l 0.24373,0.0348 0.22632,0 64.60602,0 c 218.71437,3.80931 245.38141,1.1259 280.02912,44.3167 4.22646,0 6.83216,-15.20962 6.69679,-49.8877 C 383.73045,15.69816 381.35944,0.48986 377.16901,0.48986 342.5213,41.0638 305.34003,43.65345 97.13989,47.59206 l -64.48415,0 c -0.007,-7.5e-4 -0.11274,0.001 -0.12187,0 -0.31665,-0.0348 -1.6662,-0.1936 -4.21306,-0.22632 z"
       id="path9"
       style="fill:#969696;fill-opacity:1;stroke:#000000" />
    <a
       id="a3022">
      <path
         d="m 28.32081,47.36578 c -2.82027,-0.0362 -6.60419,0.10848 -10.48042,0.83565 -3.87623,0.72717 -7.96459,2.00073 -11.3857,4.68311 -3.42111,2.68238 -5.95399,7.0917 -5.95399,12.41285 0,5.25102 2.56131,9.60655 5.9714,12.25618 3.41008,2.64962 7.46809,3.94805 11.33347,4.70051 7.399,1.44036 14.13316,0.80599 14.7283,0.7486 l 207.60629,0 0,-8.35648 -207.60629,0 -0.20891,0 -0.19151,0.0174 c 0,0 -6.52951,0.59697 -12.72622,-0.60933 -3.09835,-0.60315 -6.00407,-1.69039 -7.81679,-3.09886 -1.81272,-1.40847 -2.73326,-2.7987 -2.73326,-5.65804 0,-2.98616 0.94898,-4.41947 2.75067,-5.83212 1.8017,-1.41265 4.67706,-2.48483 7.76456,-3.06404 6.17501,-1.15843 12.69141,-0.48746 12.69141,-0.48746 l 0.24373,0.0348 0.22632,0 64.60602,0 c 218.66398,3.29867 239.94814,1.75552 276.66157,40.45786 0.31404,0.33106 2.27832,3.69044 3.36755,3.85884 4.22646,0 6.83216,-15.20962 6.69679,-49.8877 -0.13535,-34.67939 -2.50636,-49.88769 -6.69679,-49.88769 -1.43561,0.52939 -2.55472,2.82692 -3.52975,3.79575 -36.75788,36.52423 -57.6047,38.27949 -276.49937,43.30645 l -64.48415,0 c -0.007,-7.5e-4 -0.11274,0.001 -0.12187,0 -0.31665,-0.0348 -1.6662,-0.1936 -4.21306,-0.22632 z"
         id="path11"
         style="fill:#969696;fill-opacity:1;stroke:#000000" />
    </a>
    <a
       transform="translate(4.4027207e-6,-4.4027207e-6)"
       id="a3025">
      <path
         d="m 463.60039,33.4209 -271.12698,0 0,-8.91357 264.03484,0 186.9777,0 0.0523,0 0.0348,0 c 7.40542,0.15454 13.04579,0.18987 19.23046,4.50217 6.18472,4.31231 10.83278,12.24546 10.9679,20.94219 l 0,0.0174 0,0.0348 0,7.50217 0,0.0871 0,0.087 c -0.35885,9.52945 -5.18447,17.6433 -11.50758,21.77783 -6.32311,4.13454 -11.85115,3.61036 -18.77786,3.54466 l -186.84992,0 -213.74519,0 0,-8.91357 213.81636,0 186.77875,0 0.0174,0 0.0174,0 c 5.50973,0.0523 9.51038,0.75593 13.85101,-2.08228 4.34058,-2.83822 7.22625,-7.60316 7.48599,-14.50074 l 0,-7.43253 c -0.0895,-5.76067 -2.75726,-10.69775 -7.13782,-13.75213 -4.38057,-3.0544 -8.41515,-2.77909 -14.23404,-2.90053 l -179.88556,0 z"
         id="path13"
         style="fill:#969696;fill-opacity:1;stroke:#000000" />
    </a>
    <path
       d="m 256.80395,33.03684 c 0,0 0.72667,-1.56102 3.42298,-1.56102 2.30238,0 3.42297,1.56102 3.42297,1.56102 l 10e-6,41.09106 -6.84596,0 0,-41.09106 z"
       id="path15"
       style="fill:#969696;fill-opacity:1;stroke:#000000" />
    <path
       d="m 192.92084,23.8257 c -2.26989,0.62424 -2.54469,1.46047 -3.81781,1.39275 l 0,3.06404 0,1.54943 0,3.06404 c 1.27312,-0.0677 1.54792,0.76851 3.81781,1.39275 l 0,-4.45679 0,-1.54943 0,-4.45679 z"
       id="path17"
       style="fill:#969696;fill-opacity:1;stroke:#000000" />
    <path
       d="m 174.64014,21.31876 0,6.80705 0,1.86279 0,6.80705 c 4.86947,0.0617 11.7066,-0.82453 14.60643,-3.9171 l 0,-2.48953 0,-2.66363 0,-2.48953 c -2.89983,-3.09257 -9.73696,-3.97875 -14.60643,-3.9171 z"
       id="path19"
       style="fill:#969696;fill-opacity:1;stroke:#000000;stroke-opacity:1" />
    <path
       d="m 175.03498,19.3644 0,19.10552 c 0,1.03662 -1.87116,-1.04356 -1.87116,-2.33982 l 0,-14.42589 c 0,-1.29626 0.83454,-2.33981 1.87116,-2.33981 z"
       id="path21"
       style="fill:#969696;fill-opacity:1;stroke:#000000" />
    <path
       d="m 237.96205,22.60385 5.31991,0 0,12.26032 -5.31991,0 0,-12.26032 z"
       id="path23"
       style="fill:#969696;fill-opacity:1;stroke:#000000" />
    <path
       d="m 237.96205,22.60385 5.31991,0 0,12.26032 -5.31991,0 0,-12.26032 z"
       id="path25"
       style="fill:#969696;fill-opacity:1;stroke:#000000" />
    <path
       d="m 237.96205,72.74273 5.31991,0 0,12.26032 -5.31991,0 0,-12.26032 z"
       id="path27"
       style="fill:#969696;fill-opacity:1;stroke:#000000" />
    <path
       d="m 237.96205,72.74273 5.31991,0 0,12.26032 -5.31991,0 0,-12.26032 z"
       id="path29"
       style="fill:#969696;fill-opacity:1;stroke:#000000" />
    <path
       d="m 216.69286,33.05336 c 0,0 0.72667,-1.5757 3.42298,-1.5757 2.30239,0 3.42297,1.5757 3.42297,1.5757 l 10e-6,41.47785 -6.84596,0 0,-41.47785 z"
       id="path31"
       style="fill:#969696;fill-opacity:1;stroke:#000000" />
    <path
       d="m 161.93684,73.69741 26.98408,0 0,9.90634 -26.98408,0 0,-9.90634 z"
       id="path33"
       style="fill:#969696;fill-opacity:1;stroke:#000000" />
    <path
       d="m 161.93684,73.69741 26.98408,0 0,9.90634 -26.98408,0 0,-9.90634 z"
       id="path35"
       style="fill:#969696;fill-opacity:1;stroke:#000000" />
    <path
       d="m 165.97958,73.32446 18.8986,0 0,10.65225 -18.8986,0 0,-10.65225 z"
       id="path37"
       style="fill:#969696;fill-opacity:1;stroke:#000000" />
    <path
       d="m 165.97958,73.32446 18.8986,0 0,10.65225 -18.8986,0 0,-10.65225 z"
       id="path39"
       style="fill:#969696;fill-opacity:1;stroke:#000000" />
    <path
       d="m 184.02109,70.23608 6.84516,0 0,16.82903 -6.84516,0 0,-16.82903 z"
       id="path41"
       style="fill:#969696;fill-opacity:1;stroke:#000000" />
    <path
       d="m 183.79988,77.17331 7.09071,0 0,2.95446 -7.09071,0 0,-2.95446 z"
       id="path43"
       style="fill:#969696;fill-opacity:1;stroke:#000000" />
    <path
       d="m 184.02109,70.23608 6.84516,0 0,16.82903 -6.84516,0 0,-16.82903 z"
       id="path45"
       style="fill:#969696;fill-opacity:1;stroke:#000000" />
    <path
       d="m 170.93266,55.90121 c 0,0 0.47542,-2.7855 3.31443,-2.7855 3.03597,0 3.31444,2.7855 3.31444,2.7855 l 1e-5,17.19766 -6.62888,0 0,-17.19766 z"
       id="path47"
       style="fill:#969696;fill-opacity:1;stroke:#000000" />
    <path
       d="m 87.91228,55.69025 c 0,0 0.47543,-2.7855 3.31445,-2.7855 3.03596,0 3.31444,2.7855 3.31444,2.7855 l 1e-5,18.86896 -6.6289,0 0,-18.86896 z"
       id="path49"
       style="fill:#969696;fill-opacity:1;stroke:#000000" />
    <path
       d="m 638.66002,22.78698 5.3199,0 0,12.26032 -5.3199,0 0,-12.26032 z"
       id="path51"
       style="fill:#969696;fill-opacity:1;stroke:#000000" />
    <path
       d="m 643.14795,85.50962 c 0,1.00905 -0.81891,1.82798 -1.82799,1.82798 -1.00903,0 -1.82795,-0.81893 -1.82795,-1.82798 l 0,-1.04455 3.65594,0 0,1.04455 z"
       id="path53"
       style="fill:#969696;fill-opacity:1;stroke:#000000" />
    <path
       d="m 638.66002,72.36871 5.3199,0 0,12.26032 -5.3199,0 0,-12.26032 z"
       id="path55"
       style="fill:#969696;fill-opacity:1;stroke:#000000" />
    <path
       d="m 638.66002,72.36871 5.3199,0 0,12.26032 -5.3199,0 0,-12.26032 z"
       id="path57"
       style="fill:#969696;fill-opacity:1;stroke:#000000" />
    <path
       d="m 29.00732,46.81975 62.19821,0 0,3.3695 c -1.75869,2.25593 -3.79433,4.20412 -7.20669,4.62265 1.71313,0.37012 2.773,0.74026 3.56136,1.11039 l -58.55288,0 0,-9.10254 z"
       id="path59"
       style="fill:#969696;fill-opacity:1;stroke:#000000" />
    <path
       d="m 29.00732,74.39614 62.19821,0 0,9.10253 -62.19821,0 0,-9.10253 z"
       id="path61"
       style="fill:#969696;fill-opacity:1;stroke:#000000" />
    <path
       d="m 29.05677,80.32168 13.74491,0 0,3.34259 -13.74491,0 0,-3.34259 z"
       id="path63"
       style="fill:#969696;fill-opacity:1;stroke:#000000" />
    <path
       d="m 36.09841,45.84207 0.12071,0 c 0.61726,0 1.11419,0.49693 1.11419,1.11419 l 0,8.79248 c 0,0.61726 -0.49693,1.1142 -1.11419,1.1142 l -0.12071,0 c -0.61726,0 -1.11419,-0.49694 -1.11419,-1.1142 l 0,-8.79248 c 0,-0.61726 0.49693,-1.11419 1.11419,-1.11419 z"
       id="path65"
       style="fill:#969696;fill-opacity:1;stroke:#000000" />
    <path
       d="m 36.09841,45.84207 0.12071,0 c 0.61726,0 1.11419,0.49693 1.11419,1.11419 l 0,8.79248 c 0,0.61726 -0.49693,1.1142 -1.11419,1.1142 l -0.12071,0 c -0.61726,0 -1.11419,-0.49694 -1.11419,-1.1142 l 0,-8.79248 c 0,-0.61726 0.49693,-1.11419 1.11419,-1.11419 z"
       id="path67"
       style="fill:#969696;fill-opacity:1;stroke:#000000" />
    <path
       d="m 34.97698,55.80271 c 0.78786,-0.70682 1.57572,-0.59089 2.36357,0 l 0,7.37266 -2.36357,0 0,-7.37266 z"
       id="path69"
       style="fill:#969696;fill-opacity:1;stroke:#000000" />
    <path
       d="m 42.59531,66.13137 c 0,3.55297 -2.88357,6.43654 -6.43655,6.43654 -3.55298,0 -6.43655,-2.88357 -6.43655,-6.43654 l 0,-2.58264 12.8731,0 0,2.58264 z"
       id="path71"
       style="fill:#969696;fill-opacity:1;stroke:#000000" />
    <path
       d="m 42.59535,63.7252 c 0,3.55481 -2.88174,6.43655 -6.43655,6.43655 -3.5548,0 -6.43655,-2.88174 -6.43655,-6.43655 0,-3.55481 2.88175,-6.43655 6.43655,-6.43655 3.55481,0 6.43655,2.88174 6.43655,6.43655 l 0,0 z"
       id="path73"
       style="fill:#969696;fill-opacity:1;stroke:#000000" />
    <path
       d="m 34.97698,71.68003 c 0.78786,-0.70682 1.57572,-0.5909 2.36357,0 l 0,7.37265 -2.36357,0 0,-7.37265 z"
       id="path75"
       style="fill:#969696;fill-opacity:1;stroke:#000000" />
    <path
       d="m 28.79156,74.13366 14.02284,0 0,9.6275 -14.02284,0 0,-9.6275 z"
       id="path77"
       style="fill:#969696;fill-opacity:1;stroke:#000000" />
    <path
       d="m 651.15352,83.33796 5.9262,-1.13292 0.19614,1.02599 -5.9262,1.13292 -0.19614,-1.02599 z"
       id="path79"
       style="fill:#969696;fill-opacity:1;stroke:#000000" />
    <path
       d="m 28.79156,74.13366 14.02284,0 0,9.6275 -14.02284,0 0,-9.6275 z"
       id="path81"
       style="fill:#969696;fill-opacity:1;stroke:#000000" />
  </g>
</svg>
