<?xml version="1.0" encoding="UTF-8" standalone="no"?>
<!-- Created with Inkscape (http://www.inkscape.org/) -->

<svg
   xmlns:dc="http://purl.org/dc/elements/1.1/"
   xmlns:cc="http://creativecommons.org/ns#"
   xmlns:rdf="http://www.w3.org/1999/02/22-rdf-syntax-ns#"
   xmlns:svg="http://www.w3.org/2000/svg"
   xmlns="http://www.w3.org/2000/svg"
   xmlns:sodipodi="http://sodipodi.sourceforge.net/DTD/sodipodi-0.dtd"
   xmlns:inkscape="http://www.inkscape.org/namespaces/inkscape"
   version="1.0"
   width="150.46968"
   height="486.08893"
   viewBox="0 0 150.46968 486.08894"
   id="Layer_1"
   xml:space="preserve"
   inkscape:version="0.48.0 r9654"
   sodipodi:docname="trumpet.svg"><sodipodi:namedview
   pagecolor="#ffffff"
   bordercolor="#666666"
   borderopacity="1"
   objecttolerance="10"
   gridtolerance="10"
   guidetolerance="10"
   inkscape:pageopacity="0"
   inkscape:pageshadow="2"
   inkscape:window-width="1218"
   inkscape:window-height="778"
   id="namedview117"
   showgrid="false"
   fit-margin-top="0"
   fit-margin-left="0"
   fit-margin-right="0"
   fit-margin-bottom="0"
   inkscape:zoom="1.0493805"
   inkscape:cx="6.6162339"
   inkscape:cy="247.9584"
   inkscape:window-x="1272"
   inkscape:window-y="495"
   inkscape:window-maximized="1"
   inkscape:current-layer="Layer_1" /><defs
   id="defs228" />

<metadata
   id="metadata4">
<rdf:RDF>
      <cc:Work
   rdf:about="">
         <dc:title>Trumpet Silhouette</dc:title>
         <dc:description>Trumpet Silhouette</dc:description>
         <dc:subject>
          <rdf:Bag>
            <rdf:li>music</rdf:li>
            <rdf:li>instrument</rdf:li>
	    <rdf:li>trumpet</rdf:li>
	    <rdf:li>silhouette</rdf:li>
          </rdf:Bag>
         </dc:subject>
         <dc:publisher><cc:Agent
     rdf:about="http://www.openclipart.org/"><dc:title>Open Clip Art Project</dc:title></cc:Agent></dc:publisher>
         <dc:creator><cc:Agent
     rdf:about=""><dc:title>Gerald G.</dc:title></cc:Agent></dc:creator>
         <dc:rights><cc:Agent
     rdf:about="http://web.resource.org/cc/PublicDomain"><dc:title>Public Domain</dc:title></cc:Agent></dc:rights>
         <dc:date>2006/10/02</dc:date>
         <dc:format>image/svg+xml</dc:format>
         <dc:type
   rdf:resource="http://purl.org/dc/dcmitype/StillImage">http://purl.org/dc/dcmitype/StillImage</dc:type>
         <cc:license
   rdf:resource="http://web.resource.org/cc/PublicDomain" />
      </cc:Work>
      <cc:License
   rdf:about="http://web.resource.org/cc/PublicDomain">
         <cc:permits
   rdf:resource="http://web.resource.org/cc/Reproduction" />
         <cc:permits
   rdf:resource="http://web.resource.org/cc/Distribution" />
         <cc:permits
   rdf:resource="http://web.resource.org/cc/DerivativeWorks" />
      </cc:License>
   </rdf:RDF>
</metadata>

<g
   id="g5"
   transform="matrix(0,1,-1,0,150.42512,0.0445)"
   style="fill:#969696;fill-opacity:1;stroke:#000000;stroke-opacity:1;stroke-width:0.80000002;stroke-miterlimit:4;stroke-dasharray:none">
	<path
   d="m 129.906,111.491 c -7.164,-0.144 -12.6,-1.907 -16.596,-5.436 -4.212,-3.636 -6.48,-9.648 -7.344,-15.66 -0.756,-6.228 0.648,-15.156 2.844,-20.411 2.124,-5.184 5.544,-8.136 9.972,-10.656 4.248,-2.664 9.216,-4.14 15.876,-4.968 6.624,-0.9 14.616,-1.116 23.976,-0.504 l 0,0 -2.376,-7.344 0,0 c -10.656,-1.08 -19.944,-0.936 -28.008,0.72 -8.208,1.512 -14.904,4.212 -20.376,8.784 -5.544,4.644 -10.26,11.664 -12.348,18.72 -2.088,7.02 -2.34,15.623 -0.216,22.751 1.98,6.948 4.932,14.364 12.312,18.757 7.344,4.212 17.604,6.552 31.32,6.876 l 0,0 c -2.988,-3.852 -6.012,-7.74 -9.036,-11.629 l 0,0 z"
   style="fill-rule:evenodd;stroke:#000000;stroke-width:0.80000002;stroke-miterlimit:4;fill:#969696;fill-opacity:1;stroke-opacity:1;stroke-dasharray:none"
   id="path7"
   inkscape:connector-curvature="0" />
	<path
   d="m 5.238,36.324 9.036,0 2.124,3.564 0,0 c 3.96,-0.072 7.236,0 9.972,0.216 2.7,0.144 4.5,0.288 6.372,0.972 1.8,0.684 3.312,1.656 4.536,3.06 l 0,0 c 12.06,-0.864 19.944,-0.468 23.94,1.188 3.852,1.584 3.816,6.84 -0.252,8.532 -4.104,1.62 -11.988,2.016 -23.94,1.188 l 0,0 c -1.224,1.332 -2.736,2.412 -4.536,3.096 -1.872,0.612 -3.672,0.648 -6.372,0.936 -2.736,0.108 -6.012,0.324 -9.972,0.252 l 0,0 -2.124,3.564 -9.036,0 0,0 C 1.53,58.5 0.018,54.324 0.018,49.824 c 0.036,-4.536 1.728,-8.856 5.22,-13.5 l 0,0 z"
   style="fill-rule:evenodd;stroke:#000000;stroke-width:0.80000002;stroke-miterlimit:4;fill:#969696;fill-opacity:1;stroke-opacity:1;stroke-dasharray:none"
   id="path9"
   inkscape:connector-curvature="0" />
	<polygon
   points="246.295,97.487 246.295,97.487 337.482,97.487 337.482,108.396 246.295,108.396 "
   style="fill-rule:evenodd;stroke:#000000;stroke-width:0.80000002;stroke-miterlimit:4;fill:#969696;fill-opacity:1;stroke-opacity:1;stroke-dasharray:none"
   id="polygon11" />
	<polygon
   points="246.295,114.372 246.295,114.372 337.482,114.372 337.482,125.279 246.295,125.279 "
   style="fill-rule:evenodd;stroke:#000000;stroke-width:0.80000002;stroke-miterlimit:4;fill:#969696;fill-opacity:1;stroke-opacity:1;stroke-dasharray:none"
   id="polygon13" />
	<path
   d="m 344.934,97.56 c 1.764,-0.288 3.457,-0.216 5.221,0.216 1.691,0.36 3.635,1.08 5.148,2.16 1.402,1.044 2.664,2.376 3.635,4.141 0.973,1.691 1.549,3.779 1.873,6.119 0.035,2.269 -0.289,5.221 -0.973,7.309 -0.684,1.943 -1.584,3.348 -2.988,4.644 -1.619,1.116 -3.635,2.017 -5.904,2.557 -2.303,0.54 -4.824,0.72 -7.703,0.684 l 0,0 0.9,-11.16 0,0 c 1.943,0.108 3.563,-0.036 4.715,-0.288 1.189,-0.252 1.908,-0.756 2.305,-1.368 0.287,-0.756 0.18,-2.268 -0.324,-2.88 -0.576,-0.684 -1.836,-1.08 -2.951,-1.188 -1.225,-0.216 -2.557,-0.181 -4.141,0.107 l 0,0 c 0.396,-3.674 0.79,-7.345 1.187,-11.053 l 0,0 z"
   style="fill-rule:evenodd;stroke:#000000;stroke-width:0.80000002;stroke-miterlimit:4;fill:#969696;fill-opacity:1;stroke-opacity:1;stroke-dasharray:none"
   id="path15"
   inkscape:connector-curvature="0" />
	<path
   d="m 345.582,96.983 c 0.9,0.685 1.404,1.584 1.656,3.132 0.145,1.404 -0.145,3.996 -0.432,5.545 -0.434,1.476 -1.008,2.592 -1.873,3.348 l 0,0 -9.467,0 0,0 c 0,0 1.691,-2.916 2.016,-5.904 0.325,-2.988 -0.684,-6.048 -0.684,-6.048 l 0,0 c 2.917,0 5.833,-0.036 8.784,-0.073 l 0,0 z"
   style="fill-rule:evenodd;stroke:#000000;stroke-width:0.80000002;stroke-miterlimit:4;fill:#969696;fill-opacity:1;stroke-opacity:1;stroke-dasharray:none"
   id="path17"
   inkscape:connector-curvature="0" />
	<path
   d="m 345.582,113.832 c 0.9,0.647 1.404,1.655 1.656,3.168 0.145,1.403 -0.145,3.996 -0.432,5.544 -0.434,1.476 -1.008,2.592 -1.873,3.348 l 0,0 -9.467,0 0,0 c 0,0 1.691,-2.952 2.016,-5.939 0.324,-2.988 -0.684,-6.013 -0.684,-6.013 l 0,0 c 2.917,-0.037 5.833,-0.072 8.784,-0.108 l 0,0 z"
   style="fill-rule:evenodd;stroke:#000000;stroke-width:0.80000002;stroke-miterlimit:4;fill:#969696;fill-opacity:1;stroke-opacity:1;stroke-dasharray:none"
   id="path19"
   inkscape:connector-curvature="0" />
	<polygon
   points="263.357,95.147 263.357,95.147 317.467,95.147 317.467,96.552 263.357,96.552 "
   style="fill-rule:evenodd;stroke:#000000;stroke-width:0.80000002;stroke-miterlimit:4;fill:#969696;fill-opacity:1;stroke-opacity:1;stroke-dasharray:none"
   id="polygon21" />
	<polygon
   points="305.586,92.987 305.586,92.987 315.773,92.987 315.773,97.991 305.586,97.991 "
   style="fill-rule:evenodd;stroke:#000000;stroke-width:0.80000002;stroke-miterlimit:4;fill:#969696;fill-opacity:1;stroke-opacity:1;stroke-dasharray:none"
   id="polygon23" />
	<polygon
   points="309.438,89.892 309.438,89.892 311.922,89.892 311.922,93.132 309.438,93.132 "
   style="fill-rule:evenodd;stroke:#000000;stroke-width:0.80000002;stroke-miterlimit:4;fill:#969696;fill-opacity:1;stroke-opacity:1;stroke-dasharray:none"
   id="polygon25" />
	<polygon
   points="307.35,88.956 307.35,88.956 314.189,88.956 314.189,90.396 307.35,90.396 "
   style="fill-rule:evenodd;stroke:#000000;stroke-width:0.80000002;stroke-miterlimit:4;fill:#969696;fill-opacity:1;stroke-opacity:1;stroke-dasharray:none"
   id="polygon27" />
	<path
   d="m 351.99,124.235 1.836,2.196 0,0 c -0.684,0.504 -1.188,0.972 -1.512,1.404 -0.324,0.396 -0.504,0.756 -0.396,1.08 l 0,0 c 0.611,0.504 1.297,0.972 1.908,1.403 0.539,0.433 1.295,0.864 1.836,1.009 0.469,0.035 0.936,-0.181 1.26,-0.648 l 0,0 c 1.152,0.108 2.484,-0.252 4.141,-0.936 1.691,-0.792 3.707,-1.656 5.615,-3.421 1.691,-1.871 3.348,-4.428 4.824,-7.668 l 0,0 c 1.477,-0.252 2.125,-0.792 2.34,-1.332 0.037,-0.684 -0.359,-1.367 -1.584,-2.34 l 0,0 c 0.432,-2.304 0.18,-4.644 -0.756,-7.164 -1.08,-2.556 -4.32,-7.416 -5.004,-7.92 -0.611,-0.647 0.756,2.592 1.332,4.429 0.504,1.764 1.115,4.428 1.439,6.336 0.145,1.8 0,3.348 -0.432,4.644 l 0,0 -8.424,-1.584 -1.008,3.6 8.027,1.513 0,0 c -0.287,2.016 -0.936,3.636 -1.943,5.004 -1.007,1.368 -2.412,2.196 -4.068,2.916 l 0,0 c 0.18,-0.433 0.072,-0.9 -0.18,-1.26 -0.289,-0.54 -1.188,-0.9 -1.584,-1.08 -0.541,-0.108 -1.045,-0.181 -1.512,0.18 l 0,0 -2.232,-2.196 0,0 c -0.324,0.181 -0.756,0.433 -1.439,0.756 -0.685,0.287 -1.511,0.648 -2.484,1.079 l 0,0 z"
   style="fill-rule:evenodd;stroke:#000000;stroke-width:0.80000002;stroke-miterlimit:4;fill:#969696;fill-opacity:1;stroke-opacity:1;stroke-dasharray:none"
   id="path29"
   inkscape:connector-curvature="0" />
	<polygon
   points="276.102,128.916 276.102,128.916 323.803,128.916 323.803,130.319 276.102,130.319 "
   style="fill-rule:evenodd;stroke:#000000;stroke-width:0.80000002;stroke-miterlimit:4;fill:#969696;fill-opacity:1;stroke-opacity:1;stroke-dasharray:none"
   id="polygon31" />
	<polygon
   points="315.127,124.487 315.127,124.487 320.887,124.487 320.887,132.66 315.127,132.66 "
   style="fill-rule:evenodd;stroke:#000000;stroke-width:0.80000002;stroke-miterlimit:4;fill:#969696;fill-opacity:1;stroke-opacity:1;stroke-dasharray:none"
   id="polygon33" />
	<polygon
   points="275.166,126.828 275.166,126.828 278.01,126.828 278.01,132.912 275.166,132.912 "
   style="fill-rule:evenodd;stroke:#000000;stroke-width:0.80000002;stroke-miterlimit:4;fill:#969696;fill-opacity:1;stroke-opacity:1;stroke-dasharray:none"
   id="polygon35" />
	<polygon
   points="279.234,126.899 279.234,126.899 281.754,126.899 281.754,133.02 279.234,133.02 "
   style="fill-rule:evenodd;stroke:#000000;stroke-width:0.80000002;stroke-miterlimit:4;fill:#969696;fill-opacity:1;stroke-opacity:1;stroke-dasharray:none"
   id="polygon37" />
	<polygon
   points="307.063,124.487 307.063,124.487 312.822,124.487 312.822,132.66 307.063,132.66 "
   style="fill-rule:evenodd;stroke:#000000;stroke-width:0.80000002;stroke-miterlimit:4;fill:#969696;fill-opacity:1;stroke-opacity:1;stroke-dasharray:none"
   id="polygon39" />
	<path
   d="m 193.698,16.776 0,4.752 4.176,0.396 0,10.98 0,0 c -1.404,0 -2.484,0.216 -3.636,0.504 -1.152,0.288 -2.16,0.792 -3.024,1.368 l 0,0 0,5.472 0.756,0.828 0,0 c -0.036,2.052 -0.036,11.232 0,28.224 -0.036,16.992 -0.036,40.967 0,72.9 l 0,0 -1.296,0.468 0,5.544 0,0 c 0.216,0.468 1.08,0.936 2.196,1.26 1.224,0.324 3.204,0.648 4.824,0.828 1.584,0.072 2.844,0.107 4.32,-0.036 l 0,0 c 2.016,-0.252 3.636,-0.54 4.86,-0.864 1.188,-0.323 1.872,-0.792 2.196,-1.26 l 0,0 0,-5.544 -1.296,-0.432 0,0 c -0.036,-32.04 -0.036,-55.836 0,-72.936 -0.036,-16.992 -0.036,-26.172 0,-28.224 l 0,0 0.756,-0.828 0,-5.472 0,0 c -0.936,-0.612 -1.944,-1.008 -3.024,-1.332 -1.188,-0.324 -2.268,-0.504 -3.636,-0.54 l 0,0 0,-10.836 4.176,-0.54 0,-4.752 0,0 c -1.296,-0.396 -2.736,-0.576 -4.176,-0.684 -1.512,-0.072 -3.348,-0.072 -4.68,0.144 -1.404,0.072 -2.52,0.324 -3.492,0.612 l 0,0 z"
   style="fill-rule:evenodd;stroke:#000000;stroke-width:0.80000002;stroke-miterlimit:4;fill:#969696;fill-opacity:1;stroke-opacity:1;stroke-dasharray:none"
   id="path41"
   inkscape:connector-curvature="0" />
	
	
	
	
	
	
	
	
	
	
	
	
	
	
	
	
	
	
	
	<path
   d="m 215.874,16.776 0,4.752 4.176,0.396 0,10.98 0,0 c -1.404,0 -2.484,0.216 -3.636,0.504 -1.152,0.288 -2.16,0.792 -3.024,1.368 l 0,0 0,5.472 0.756,0.828 0,0 c -0.036,2.052 -0.036,11.232 0,28.224 -0.036,16.992 -0.036,40.967 0,72.9 l 0,0 -1.296,0.468 0,5.544 0,0 c 0.216,0.468 1.08,0.936 2.196,1.26 1.224,0.324 3.204,0.648 4.824,0.828 1.584,0.072 2.844,0.107 4.32,-0.036 l 0,0 c 2.016,-0.252 3.636,-0.54 4.86,-0.864 1.188,-0.323 1.872,-0.792 2.196,-1.26 l 0,0 0,-5.544 -1.296,-0.432 0,0 c -0.036,-32.04 -0.036,-55.836 0,-72.936 -0.036,-16.992 -0.036,-26.172 0,-28.224 l 0,0 0.756,-0.828 0,-5.472 0,0 c -0.936,-0.612 -1.944,-1.008 -3.024,-1.332 -1.188,-0.324 -2.268,-0.504 -3.636,-0.54 l 0,0 0,-10.836 4.176,-0.54 0,-4.752 0,0 c -1.296,-0.396 -2.736,-0.576 -4.176,-0.684 -1.512,-0.072 -3.348,-0.072 -4.68,0.144 -1.404,0.072 -2.52,0.324 -3.492,0.612 l 0,0 z"
   style="fill-rule:evenodd;stroke:#000000;stroke-width:0.80000002;stroke-miterlimit:4;fill:#969696;fill-opacity:1;stroke-opacity:1;stroke-dasharray:none"
   id="path81"
   inkscape:connector-curvature="0" />
	
	
	
	
	
	
	
	
	
	
	
	
	
	
	
	
	
	
	
	<path
   d="m 236.682,16.776 0,4.752 4.14,0.396 0,10.98 0,0 c -1.404,0 -2.484,0.216 -3.636,0.504 -1.152,0.288 -2.16,0.792 -3.024,1.368 l 0,0 0,5.472 0.756,0.828 0,0 c -0.036,2.052 -0.036,11.232 0,28.224 -0.036,16.992 -0.036,40.967 0,72.9 l 0,0 -1.296,0.468 0,5.544 0,0 c 0.288,0.468 0.972,0.936 2.196,1.26 1.152,0.324 3.276,0.648 4.86,0.828 1.512,0.072 2.952,0.107 4.32,-0.036 l 0,0 c 2.088,-0.252 3.564,-0.54 4.824,-0.864 1.08,-0.323 1.943,-0.792 2.195,-1.26 l 0,0 0,-5.544 -1.26,-0.432 0,0 c -0.035,-32.04 -0.035,-55.836 0,-72.936 -0.035,-16.992 -0.035,-26.172 0,-28.224 l 0,0 0.756,-0.828 0,-5.472 0,0 c -0.936,-0.612 -1.943,-1.008 -3.023,-1.332 -1.188,-0.324 -2.268,-0.504 -3.637,-0.54 l 0,0 0,-10.836 4.141,-0.54 0,-4.752 0,0 c -1.332,-0.396 -2.664,-0.576 -4.141,-0.684 -1.656,-0.072 -3.275,-0.072 -4.715,0.144 -1.404,0.072 -2.556,0.324 -3.456,0.612 l 0,0 z"
   style="fill-rule:evenodd;stroke:#000000;stroke-width:0.80000002;stroke-miterlimit:4;fill:#969696;fill-opacity:1;stroke-opacity:1;stroke-dasharray:none"
   id="path121"
   inkscape:connector-curvature="0" />
	
	
	
	
	
	
	
	
	
	
	
	
	
	
	
	
	
	
	
	<path
   d="m 229.77,88.523 c -0.684,0.288 -1.188,0.721 -1.656,1.44 -0.54,0.576 -1.224,1.476 -1.08,2.556 0.144,1.08 0.648,2.484 1.8,4.068 l 0,0 c 0.468,-0.54 1.08,-1.044 1.836,-1.225 0.684,-0.323 1.584,-0.468 2.556,-0.287 1.008,0.18 2.088,0.539 3.384,1.224 l 0,0 c 0.972,-1.332 1.368,-2.592 1.188,-3.924 -0.18,-1.368 -1.08,-2.7 -2.412,-3.996 l 0,0 c -0.144,1.008 -0.684,1.8 -1.332,2.088 -0.72,0.36 -2.304,0.036 -2.952,-0.145 -0.684,-0.394 -1.224,-0.898 -1.332,-1.799 l 0,0 z"
   style="fill-rule:evenodd;stroke:#000000;stroke-width:0.80000002;stroke-miterlimit:4;fill:#969696;fill-opacity:1;stroke-opacity:1;stroke-dasharray:none"
   id="path161"
   inkscape:connector-curvature="0" />
	<path
   d="m 208.062,88.92 c -0.612,0.288 -1.296,0.72 -1.656,1.439 -0.576,0.576 -1.152,1.477 -1.044,2.557 0.108,1.08 0.756,2.483 1.8,4.067 l 0,0 c 0.432,-0.54 1.08,-1.044 1.8,-1.224 0.684,-0.324 1.584,-0.468 2.556,-0.288 1.008,0.18 2.088,0.54 3.384,1.224 l 0,0 c 1.044,-1.332 1.404,-2.592 1.224,-3.924 -0.216,-1.368 -0.972,-2.7 -2.412,-3.996 l 0,0 c -0.252,1.116 -0.612,1.729 -1.368,2.124 -0.72,0.252 -2.304,0.145 -2.952,-0.18 -0.684,-0.396 -1.224,-0.9 -1.332,-1.799 l 0,0 z"
   style="fill-rule:evenodd;stroke:#000000;stroke-width:0.80000002;stroke-miterlimit:4;fill:#969696;fill-opacity:1;stroke-opacity:1;stroke-dasharray:none"
   id="path163"
   inkscape:connector-curvature="0" />
	<path
   d="m 229.086,132.228 c -0.612,0.288 -1.296,0.72 -1.656,1.44 -0.576,0.576 -1.152,1.476 -1.044,2.556 0.108,1.08 0.756,2.484 1.8,4.068 l 0,0 c 0.432,-0.54 1.08,-1.044 1.8,-1.225 0.684,-0.323 1.584,-0.468 2.556,-0.288 0.972,0.108 2.16,0.505 3.42,1.188 l 0,0 c 0.972,-1.332 1.368,-2.628 1.188,-3.888 -0.18,-1.368 -1.08,-2.7 -2.412,-3.996 l 0,0 c -0.216,1.008 -0.72,1.8 -1.368,2.088 -0.792,0.359 -2.232,0.036 -2.916,-0.145 -0.684,-0.394 -1.188,-0.898 -1.368,-1.798 l 0,0 z"
   style="fill-rule:evenodd;stroke:#000000;stroke-width:0.80000002;stroke-miterlimit:4;fill:#969696;fill-opacity:1;stroke-opacity:1;stroke-dasharray:none"
   id="path165"
   inkscape:connector-curvature="0" />
	<path
   d="m 207.738,131.976 c -0.684,0.288 -1.188,0.72 -1.656,1.44 -0.54,0.575 -1.224,1.476 -1.08,2.556 0.108,1.08 0.72,2.484 1.836,4.068 l 0,0 c 0.432,-0.54 1.08,-1.044 1.8,-1.225 0.684,-0.324 1.584,-0.468 2.556,-0.288 1.008,0.108 2.088,0.504 3.384,1.188 l 0,0 c 0.972,-1.332 1.368,-2.628 1.188,-3.888 -0.216,-1.368 -1.008,-2.7 -2.376,-3.996 l 0,0 c -0.252,1.008 -0.612,1.8 -1.368,2.088 -0.72,0.359 -2.304,0.036 -2.952,-0.145 -0.684,-0.394 -1.224,-0.898 -1.332,-1.798 l 0,0 z"
   style="fill-rule:evenodd;stroke:#000000;stroke-width:0.80000002;stroke-miterlimit:4;fill:#969696;fill-opacity:1;stroke-opacity:1;stroke-dasharray:none"
   id="path167"
   inkscape:connector-curvature="0" />
	<path
   d="m 229.158,111.06 c -0.792,0.396 -1.44,0.828 -1.944,1.692 -0.612,0.756 -1.404,1.62 -1.26,3.023 0.108,1.261 0.864,2.916 2.124,4.824 l 0,0 c 0.54,-0.72 1.26,-1.152 2.16,-1.439 0.828,-0.36 1.836,-0.576 3.024,-0.36 1.152,0.18 2.484,0.612 3.996,1.439 l 0,0 c 1.224,-1.584 1.656,-3.132 1.44,-4.644 -0.252,-1.656 -1.152,-3.096 -2.844,-4.716 l 0,0 c -0.252,1.224 -0.792,2.052 -1.62,2.483 -0.972,0.288 -2.592,0.181 -3.456,-0.18 -0.9,-0.466 -1.44,-1.042 -1.62,-2.122 l 0,0 z"
   style="fill-rule:evenodd;stroke:#000000;stroke-width:0.80000002;stroke-miterlimit:4;fill:#969696;fill-opacity:1;stroke-opacity:1;stroke-dasharray:none"
   id="path169"
   inkscape:connector-curvature="0" />
	<path
   d="m 139.95,45.108 -1.008,7.2 0,0 c 35.424,1.548 64.98,2.736 90.468,3.708 25.271,0.864 37.152,0.828 60.516,1.836 23.363,1.008 57.996,2.592 78.625,4.176 20.375,1.404 30.996,2.808 43.379,4.896 12.313,1.98 22.465,4.752 29.916,7.632 7.201,2.843 10.332,6.228 13.428,9.755 3.061,3.42 2.557,7.272 4.896,11.124 2.305,3.816 5.256,12.024 8.568,11.844 3.131,-0.323 7.813,-7.703 10.439,-13.248 2.449,-5.615 3.672,-13.104 4.789,-19.691 1.043,-6.552 1.764,-12.996 1.871,-19.476 l 0,0 C 486.089,47.7 486.017,40.86 485.585,33.984 485.153,27.108 484.901,19.62 483.28,14.04 481.626,8.46 478.313,2.7 475.864,0.828 c -2.447,-1.872 -4.967,-0.216 -7.199,2.088 -2.195,2.304 -4.32,8.424 -5.977,11.592 -1.619,3.132 -0.936,4.356 -3.707,7.2 -2.771,2.844 -3.961,6.948 -12.744,9.72 -8.855,2.772 -19.477,5.04 -39.672,6.732 -20.305,1.656 -54.396,2.448 -80.748,3.24 -26.316,0.792 -44.748,0.792 -75.961,1.404 -31.282,0.612 -67.282,1.368 -109.906,2.304 l 0,0 z"
   style="fill-rule:evenodd;stroke:#000000;stroke-width:0.80000002;stroke-miterlimit:4;fill:#969696;fill-opacity:1;stroke-opacity:1;stroke-dasharray:none"
   id="path171"
   inkscape:connector-curvature="0" />
	<path
   d="m 265.77,22.212 -0.648,2.052 0,0 c -1.691,0.432 -3.168,1.116 -4.967,2.448 -1.836,1.188 -4.572,3.024 -5.436,5.076 -0.973,2.088 -0.9,4.932 0.215,7.128 1.08,2.088 2.197,3.96 6.66,5.328 4.465,1.26 10.908,2.052 19.729,2.376 l 0,0 c 0.252,-1.008 0.791,-1.872 1.619,-2.448 0.793,-0.648 1.873,-1.152 3.24,-1.368 l 0,0 0.217,-1.44 0,0 c -2.736,0 -5.832,0.036 -9.432,0.108 -3.709,0.072 -9.072,0.468 -12.205,0.072 -3.168,-0.576 -5.4,-1.764 -6.695,-3.168 -1.369,-1.512 -1.621,-3.744 -1.332,-5.328 0.215,-1.584 0.971,-2.664 2.807,-4.068 1.766,-1.548 4.248,-2.988 7.598,-4.716 l 0,0 c 0.107,-0.864 0.18,-1.44 0.072,-1.872 -0.254,-0.504 -0.576,-0.828 -0.828,-0.828 -0.218,-0.072 -0.47,0.144 -0.614,0.648 l 0,0 z"
   style="fill-rule:evenodd;stroke:#000000;stroke-width:0.80000002;stroke-miterlimit:4;fill:#969696;fill-opacity:1;stroke-opacity:1;stroke-dasharray:none"
   id="path173"
   inkscape:connector-curvature="0" />
	<polygon
   points="147.654,97.487 147.654,97.487 183.942,97.487 183.942,108.396 147.654,108.396 "
   style="fill-rule:evenodd;stroke:#000000;stroke-width:0.80000002;stroke-miterlimit:4;fill:#969696;fill-opacity:1;stroke-opacity:1;stroke-dasharray:none"
   id="polygon175" />
	<path
   d="m 182.322,96.983 c -0.684,0.685 -1.08,1.584 -1.188,3.132 -0.18,1.404 -0.036,3.996 0.288,5.545 0.288,1.476 0.756,2.592 1.404,3.348 l 0,0 5.724,0 1.26,-0.685 0,0 c 1.656,-0.071 2.808,-0.432 3.852,-0.792 0.828,-0.396 1.404,-1.079 1.872,-1.764 0.432,-0.828 1.296,-1.836 1.188,-2.88 -0.18,-1.152 -0.792,-2.7 -1.98,-3.528 -1.224,-0.936 -2.88,-1.332 -5.112,-1.584 l 0,0 -1.404,-0.792 0,0 c -1.944,0 -3.924,0 -5.904,0 l 0,0 z"
   style="fill-rule:evenodd;stroke:#000000;stroke-width:0.80000002;stroke-miterlimit:4;fill:#969696;fill-opacity:1;stroke-opacity:1;stroke-dasharray:none"
   id="path177"
   inkscape:connector-curvature="0" />
	<polygon
   points="147.654,114.372 147.654,114.372 183.942,114.372 183.942,125.279 147.654,125.279 "
   style="fill-rule:evenodd;stroke:#000000;stroke-width:0.80000002;stroke-miterlimit:4;fill:#969696;fill-opacity:1;stroke-opacity:1;stroke-dasharray:none"
   id="polygon179" />
	<path
   d="m 182.322,113.832 c -0.684,0.647 -1.08,1.655 -1.188,3.168 -0.18,1.403 -0.036,3.996 0.288,5.544 0.288,1.476 0.756,2.592 1.404,3.348 l 0,0 5.724,0 1.26,-0.684 0,0 c 1.656,-0.072 2.808,-0.433 3.852,-0.792 0.828,-0.504 1.404,-1.009 1.872,-1.801 0.432,-0.863 1.296,-1.764 1.188,-2.844 -0.18,-1.116 -0.792,-2.771 -1.98,-3.563 -1.224,-0.937 -2.88,-1.332 -5.112,-1.584 l 0,0 -1.404,-0.792 0,0 c -1.944,0 -3.924,0 -5.904,0 l 0,0 z"
   style="fill-rule:evenodd;stroke:#000000;stroke-width:0.80000002;stroke-miterlimit:4;fill:#969696;fill-opacity:1;stroke-opacity:1;stroke-dasharray:none"
   id="path181"
   inkscape:connector-curvature="0" />
	<path
   d="m 141.39,97.56 c -1.764,-0.288 -3.564,-0.216 -5.256,0.216 -1.836,0.36 -3.636,1.08 -5.112,2.16 -1.62,1.044 -2.7,2.376 -3.672,4.141 -1.008,1.691 -1.764,3.779 -1.872,6.119 -0.18,2.269 0.288,5.221 1.008,7.309 0.54,1.943 1.476,3.348 2.952,4.644 1.512,1.116 3.528,2.017 5.904,2.557 2.268,0.54 4.788,0.72 7.704,0.684 l 0,0 -0.864,-11.16 0,0 c -2.052,0.108 -3.636,-0.036 -4.752,-0.288 -1.224,-0.252 -1.98,-0.756 -2.268,-1.368 -0.396,-0.756 -0.252,-2.268 0.288,-2.88 0.468,-0.684 1.728,-1.08 2.952,-1.188 1.188,-0.216 2.52,-0.181 4.14,0.107 l 0,0 c -0.36,-3.674 -0.756,-7.345 -1.152,-11.053 l 0,0 z"
   style="fill-rule:evenodd;stroke:#000000;stroke-width:0.80000002;stroke-miterlimit:4;fill:#969696;fill-opacity:1;stroke-opacity:1;stroke-dasharray:none"
   id="path183"
   inkscape:connector-curvature="0" />
	<path
   d="m 140.706,96.983 c -0.9,0.685 -1.44,1.584 -1.62,3.132 -0.324,1.404 0.036,3.996 0.396,5.545 0.36,1.476 1.044,2.592 1.908,3.348 l 0,0 9.468,0 0,0 c 0,0 -1.692,-2.916 -2.052,-5.904 -0.324,-2.988 0.684,-6.048 0.684,-6.048 l 0,0 c -2.916,0 -5.832,-0.036 -8.784,-0.073 l 0,0 z"
   style="fill-rule:evenodd;stroke:#000000;stroke-width:0.80000002;stroke-miterlimit:4;fill:#969696;fill-opacity:1;stroke-opacity:1;stroke-dasharray:none"
   id="path185"
   inkscape:connector-curvature="0" />
	<path
   d="m 140.706,113.832 c -0.9,0.647 -1.44,1.655 -1.62,3.168 -0.324,1.403 0.036,3.996 0.396,5.544 0.36,1.476 1.044,2.592 1.908,3.348 l 0,0 9.468,0 0,0 c 0,0 -1.692,-2.952 -2.052,-5.939 -0.324,-2.988 0.684,-6.013 0.684,-6.013 l 0,0 c -2.916,-0.037 -5.832,-0.072 -8.784,-0.108 l 0,0 z"
   style="fill-rule:evenodd;stroke:#000000;stroke-width:0.80000002;stroke-miterlimit:4;fill:#969696;fill-opacity:1;stroke-opacity:1;stroke-dasharray:none"
   id="path187"
   inkscape:connector-curvature="0" />
	<path
   d="m 205.434,97.56 c -1.98,-0.288 -3.996,-0.216 -5.904,0.216 -1.98,0.36 -4.176,1.08 -5.76,2.16 -1.728,1.044 -3.096,2.376 -4.104,4.141 -1.152,1.691 -1.944,3.779 -2.088,6.119 -0.18,2.269 0.288,5.221 1.116,7.309 0.648,1.943 1.656,3.348 3.312,4.644 1.62,1.116 4.032,2.017 6.66,2.557 2.52,0.54 5.4,0.72 8.64,0.684 l 0,0 -1.008,-11.16 0,0 c -2.268,0.108 -3.996,-0.036 -5.328,-0.288 -1.332,-0.252 -2.124,-0.756 -2.52,-1.368 -0.396,-0.756 -0.288,-2.268 0.324,-2.88 0.612,-0.684 1.908,-1.08 3.312,-1.188 1.332,-0.216 2.844,-0.181 4.68,0.107 l 0,0 c -0.432,-3.674 -0.864,-7.345 -1.332,-11.053 l 0,0 z"
   style="fill-rule:evenodd;stroke:#000000;stroke-width:0.80000002;stroke-miterlimit:4;fill:#969696;fill-opacity:1;stroke-opacity:1;stroke-dasharray:none"
   id="path189"
   inkscape:connector-curvature="0" />
	<path
   d="m 205.866,96.983 c -0.684,0.685 -1.224,1.584 -1.332,3.132 -0.18,1.404 -0.072,3.996 0.324,5.545 0.324,1.476 0.792,2.592 1.548,3.348 l 0,0 6.444,0 1.44,-0.685 0,0 c 1.8,-0.071 3.24,-0.432 4.32,-0.792 0.972,-0.396 1.548,-1.079 2.124,-1.764 0.54,-0.828 1.404,-1.836 1.332,-2.88 -0.216,-1.152 -0.864,-2.7 -2.232,-3.528 -1.404,-0.936 -3.276,-1.332 -5.76,-1.584 l 0,0 -1.548,-0.792 0,0 c -2.196,0 -4.428,0 -6.66,0 l 0,0 z"
   style="fill-rule:evenodd;stroke:#000000;stroke-width:0.80000002;stroke-miterlimit:4;fill:#969696;fill-opacity:1;stroke-opacity:1;stroke-dasharray:none"
   id="path191"
   inkscape:connector-curvature="0" />
	<path
   d="m 205.866,113.832 c -0.684,0.647 -1.224,1.655 -1.332,3.168 -0.18,1.403 -0.072,3.996 0.324,5.544 0.324,1.476 0.792,2.592 1.548,3.348 l 0,0 6.444,0 1.44,-0.684 0,0 c 1.8,-0.072 3.24,-0.433 4.32,-0.792 0.972,-0.504 1.548,-1.009 2.124,-1.801 0.54,-0.863 1.404,-1.764 1.332,-2.844 -0.216,-1.116 -0.864,-2.771 -2.232,-3.563 -1.404,-0.937 -3.276,-1.332 -5.76,-1.584 l 0,0 -1.548,-0.792 0,0 c -2.196,0 -4.428,0 -6.66,0 l 0,0 z"
   style="fill-rule:evenodd;stroke:#000000;stroke-width:0.80000002;stroke-miterlimit:4;fill:#969696;fill-opacity:1;stroke-opacity:1;stroke-dasharray:none"
   id="path193"
   inkscape:connector-curvature="0" />
	<polygon
   points="56.862,44.136 56.862,44.136 361.891,44.136 361.891,55.044 56.862,55.044 "
   style="fill-rule:evenodd;stroke:#000000;stroke-width:0.80000002;stroke-miterlimit:4;fill:#969696;fill-opacity:1;stroke-opacity:1;stroke-dasharray:none"
   id="polygon195" />
	<polygon
   points="250.219,111.312 250.219,111.312 360.701,111.312 360.701,122.22 250.219,122.22 "
   style="fill-rule:evenodd;stroke:#000000;stroke-width:0.80000002;stroke-miterlimit:4;fill:#969696;fill-opacity:1;stroke-opacity:1;stroke-dasharray:none"
   id="polygon197" />
	<path
   d="m 254.43,110.52 c 0.648,0.648 1.045,1.656 1.188,3.168 0.145,1.44 -0.143,3.924 -0.322,5.508 -0.254,1.477 -0.758,2.557 -1.369,3.385 l 0,0 -5.725,0 -1.295,-0.721 0,0 c -1.621,-0.071 -2.844,-0.432 -3.816,-0.792 -0.972,-0.396 -1.512,-1.08 -1.908,-1.764 -0.576,-0.864 -1.332,-1.764 -1.152,-2.844 0.072,-1.116 0.72,-2.772 1.944,-3.564 1.224,-0.936 2.807,-1.332 5.147,-1.584 l 0,0 1.369,-0.792 0,0 c 1.98,0 3.958,0 5.939,0 l 0,0 z"
   style="fill-rule:evenodd;stroke:#000000;stroke-width:0.80000002;stroke-miterlimit:4;fill:#969696;fill-opacity:1;stroke-opacity:1;stroke-dasharray:none"
   id="path199"
   inkscape:connector-curvature="0" />
	<path
   d="m 368.803,44.244 c 1.836,-0.324 4.248,-0.18 7.523,0.432 3.131,0.468 8.027,0.864 11.771,3.132 3.781,2.232 7.992,4.824 10.549,10.692 2.34,5.94 4.031,16.272 3.959,24.191 -0.215,7.74 -1.799,16.236 -4.355,22.177 -2.557,5.796 -5.473,9.756 -10.691,12.708 -5.4,2.844 -12.205,4.355 -20.953,4.535 l 0,0 -1.764,-10.8 0,0 c 6.625,0.756 11.881,-0.072 16.164,-2.34 4.283,-2.484 7.199,-6.912 9.145,-11.628 1.656,-4.752 2.16,-10.548 1.799,-16.272 -0.287,-5.939 -1.475,-14.003 -3.563,-18.215 -2.34,-4.104 -5.4,-5.184 -9.182,-6.444 -3.779,-1.368 -7.883,-1.908 -12.852,-1.62 l 0,0 c 0.793,-3.492 1.622,-7.02 2.45,-10.548 l 0,0 z"
   style="fill-rule:evenodd;stroke:#000000;stroke-width:0.80000002;stroke-miterlimit:4;fill:#969696;fill-opacity:1;stroke-opacity:1;stroke-dasharray:none"
   id="path201"
   inkscape:connector-curvature="0" />
	<path
   d="m 368.945,43.632 c 0.865,0.684 1.477,1.584 1.693,3.132 0.215,1.404 -0.109,3.996 -0.434,5.544 -0.467,1.476 -1.078,2.592 -1.979,3.348 l 0,0 -10.008,0 0,0 c 0,0 1.799,-2.952 2.16,-5.904 0.359,-2.988 -0.721,-6.048 -0.721,-6.048 l 0,0 c 3.098,0 6.194,-0.036 9.289,-0.072 l 0,0 z"
   style="fill-rule:evenodd;stroke:#000000;stroke-width:0.80000002;stroke-miterlimit:4;fill:#969696;fill-opacity:1;stroke-opacity:1;stroke-dasharray:none"
   id="path203"
   inkscape:connector-curvature="0" />
	<path
   d="m 368.945,110.735 c 0.865,0.648 1.477,1.656 1.693,3.168 0.215,1.368 -0.109,4.032 -0.434,5.509 -0.467,1.476 -1.078,2.592 -1.979,3.348 l 0,0 -10.008,0 0,0 c 0,0 1.799,-2.916 2.16,-5.904 0.359,-2.987 -0.721,-6.012 -0.721,-6.012 l 0,0 c 3.098,-0.036 6.194,-0.073 9.289,-0.109 l 0,0 z"
   style="fill-rule:evenodd;stroke:#000000;stroke-width:0.80000002;stroke-miterlimit:4;fill:#969696;fill-opacity:1;stroke-opacity:1;stroke-dasharray:none"
   id="path205"
   inkscape:connector-curvature="0" />
	<polygon
   points="347.598,54.252 347.598,54.252 354.186,54.252 354.186,64.512 347.598,64.512 "
   style="fill-rule:evenodd;stroke:#000000;stroke-width:0.80000002;stroke-miterlimit:4;fill:#969696;fill-opacity:1;stroke-opacity:1;stroke-dasharray:none"
   id="polygon207" />
	<polygon
   points="347.598,101.844 347.598,101.844 354.186,101.844 354.186,112.104 347.598,112.104 "
   style="fill-rule:evenodd;stroke:#000000;stroke-width:0.80000002;stroke-miterlimit:4;fill:#969696;fill-opacity:1;stroke-opacity:1;stroke-dasharray:none"
   id="polygon209" />
	<polygon
   points="348.715,64.224 348.715,64.224 352.529,64.224 352.529,102.672 348.715,102.672 "
   style="fill-rule:evenodd;stroke:#000000;stroke-width:0.80000002;stroke-miterlimit:4;fill:#969696;fill-opacity:1;stroke-opacity:1;stroke-dasharray:none"
   id="polygon211" />
	<path
   d="m 395.227,109.655 c 0.504,0.648 1.188,1.152 1.908,1.513 0.646,0.323 1.475,0.504 2.34,0.54 l 0,0 c 0.791,0.828 0.646,1.836 -0.432,3.023 -1.117,1.188 -3.17,2.557 -6.156,4.104 l 0,0 c 0.07,-0.685 -0.109,-1.188 -0.541,-1.513 -0.432,-0.323 -1.26,-0.468 -2.195,-0.432 l 0,0 -0.828,-0.396 -5.184,2.592 0.539,0.972 0,0 c -0.252,0.18 -0.432,0.54 -0.539,1.08 -0.182,0.504 -0.469,1.332 -0.289,1.944 0.037,0.54 0.504,0.899 1.117,1.08 0.576,-0.036 1.584,-0.181 2.734,-0.828 l 0,0 c 2.018,0.792 4.43,0.432 7.236,-1.08 2.773,-1.729 6.625,-4.464 9.469,-8.353 2.771,-3.924 5.832,-10.8 7.236,-14.651 1.332,-3.996 0.863,-8.028 0.684,-8.353 -0.252,-0.18 -0.756,3.853 -2.34,6.84 -1.764,2.809 -4.176,6.192 -7.668,10.152 l 0,0 c -0.541,-0.54 -1.225,-1.008 -2.053,-1.26 -0.9,-0.324 -1.943,-0.504 -3.131,-0.54 l 0,0 c -0.613,1.19 -1.261,2.379 -1.907,3.566 l 0,0 z"
   style="fill-rule:evenodd;stroke:#000000;stroke-width:0.80000002;stroke-miterlimit:4;fill:#969696;fill-opacity:1;stroke-opacity:1;stroke-dasharray:none"
   id="path213"
   inkscape:connector-curvature="0" />
	
	
	
	
	
	<path
   d="m 264.078,76.392 0,0 c 5.564,0 10.08,4.516 10.08,10.08 0,5.564 -4.516,10.08 -10.08,10.08 -5.564,0 -10.08,-4.516 -10.08,-10.08 0,-5.564 4.516,-10.08 10.08,-10.08 l 0,0 z m 0.108,1.44 0,0 c 4.711,0 8.533,3.87 8.533,8.64 0,4.77 -3.822,8.64 -8.533,8.64 -4.709,0 -8.531,-3.87 -8.531,-8.64 0,-4.77 3.822,-8.64 8.531,-8.64 l 0,0 z"
   style="fill-rule:evenodd;stroke:#000000;stroke-width:0.80000002;stroke-miterlimit:4;fill:#969696;fill-opacity:1;stroke-opacity:1;stroke-dasharray:none"
   id="path225"
   inkscape:connector-curvature="0" />
</g>
</svg>